<svg xmlns="http://www.w3.org/2000/svg" viewBox="0 0 100 100">
  <defs>
    <linearGradient id="bg" x1="0%" y1="0%" x2="100%" y2="100%">
      <stop offset="0%" style="stop-color:#7C6AF7"/>
      <stop offset="100%" style="stop-color:#A78BFA"/>
    </linearGradient>
  </defs>
  <!-- Background rounded square -->
  <rect width="100" height="100" rx="22" fill="url(#bg)"/>
  <!-- Baby face circle -->
  <circle cx="50" cy="41" r="25" fill="white" opacity="0.96"/>
  <!-- Eyes -->
  <circle cx="41.5" cy="36" r="3.5" fill="#7C6AF7"/>
  <circle cx="58.5" cy="36" r="3.5" fill="#7C6AF7"/>
  <!-- Eye shine -->
  <circle cx="43" cy="34.5" r="1.2" fill="white"/>
  <circle cx="60" cy="34.5" r="1.2" fill="white"/>
  <!-- Rosy cheeks -->
  <circle cx="35.5" cy="44" r="4.5" fill="#F9A8D4" opacity="0.55"/>
  <circle cx="64.5" cy="44" r="4.5" fill="#F9A8D4" opacity="0.55"/>
  <!-- Smile -->
  <path d="M 42 48 Q 50 56 58 48" stroke="#7C6AF7" stroke-width="2.5" fill="none" stroke-linecap="round"/>
  <!-- Heart below face -->
  <path d="M50 80 L38 68 C33 62 33 53 40 50 C44.5 48 50 53 50 53 C50 53 55.5 48 60 50 C67 53 67 62 62 68 Z" fill="#F472B6"/>
</svg>
